<?xml version="1.0" standalone="no"?>
<!DOCTYPE svg PUBLIC "-//W3C//DTD SVG 20010904//EN"
 "http://www.w3.org/TR/2001/REC-SVG-20010904/DTD/svg10.dtd">
<svg version="1.0" xmlns="http://www.w3.org/2000/svg"
 width="985.000000pt" height="1600.000000pt" viewBox="0 0 985.000000 1600.000000"
 preserveAspectRatio="xMidYMid meet">
<metadata>
Created by potrace 1.16, written by Peter Selinger 2001-2019
</metadata>
<g transform="translate(0.000000,1600.000000) scale(0.100000,-0.100000)"
fill="#000000" stroke="none">
<path d="M3399 15493 c-1 -10 -1 -456 0 -465 1 -3 148 -8 329 -10 308 -4 331
-6 396 -27 146 -48 238 -103 319 -190 106 -115 176 -264 224 -476 16 -72 18
-149 21 -747 l3 -668 -64 0 c-335 0 -980 -114 -1339 -236 -590 -201 -1096
-505 -1492 -898 -209 -206 -315 -334 -471 -571 -274 -413 -439 -791 -584
-1330 -203 -757 -278 -1694 -206 -2560 101 -1215 420 -2133 987 -2839 85 -105
390 -417 467 -477 24 -19 60 -48 80 -65 30 -26 116 -90 231 -171 58 -41 313
-189 415 -240 311 -157 697 -287 1089 -368 94 -20 400 -65 436 -65 l29 0 3
218 c2 119 1 267 0 327 l-4 110 -62 46 c-141 105 -288 301 -416 554 -175 345
-269 636 -365 1127 -102 526 -153 969 -197 1718 -18 294 -17 1431 0 1685 63
913 116 1302 263 1897 64 261 146 492 273 770 120 263 299 497 512 668 40 32
158 103 217 130 105 47 151 67 175 74 l22 7 0 -5273 c0 -5621 2 -5371 -45
-5553 -21 -82 -104 -247 -159 -317 -92 -115 -239 -213 -386 -258 -99 -30 -222
-40 -482 -40 l-238 0 0 -238 0 -238 343 3 c382 3 539 17 726 64 173 43 345
134 440 231 l38 40 69 -62 c144 -128 317 -198 619 -251 66 -11 851 -30 861
-20 2 2 4 109 4 237 l0 232 -297 4 c-338 5 -392 13 -529 78 -249 119 -410 349
-458 655 -13 82 -17 213 -19 721 l-2 621 210 12 c232 14 456 42 645 81 287 60
435 100 655 178 384 136 746 329 1035 550 47 36 87 68 90 72 3 3 46 40 95 82
82 69 266 252 340 338 175 202 251 309 424 593 118 195 276 543 352 778 125
387 226 857 269 1259 6 58 15 139 20 180 36 290 49 1131 22 1405 -73 737 -156
1170 -314 1640 -230 680 -640 1310 -1108 1701 -487 406 -968 656 -1605 830
-189 52 -513 112 -630 116 l-70 3 -3 -325 -2 -325 79 -75 c43 -41 102 -104
130 -140 29 -36 58 -72 66 -81 37 -46 160 -260 218 -379 89 -183 141 -323 225
-600 119 -394 216 -936 267 -1485 50 -545 57 -700 62 -1295 6 -658 -14 -1222
-57 -1615 -59 -547 -83 -717 -151 -1070 -68 -355 -137 -603 -242 -870 -99
-253 -217 -468 -334 -612 -24 -30 -52 -63 -61 -75 -94 -116 -262 -249 -407
-321 -73 -35 -203 -82 -210 -75 -3 2 -5 2409 -5 5349 l-1 5345 21 104 c64 324
222 537 466 629 120 46 196 55 503 61 l295 5 0 235 1 235 -365 0 c-389 0 -473
-7 -637 -50 -207 -54 -370 -140 -501 -263 l-35 -33 -41 39 c-166 159 -460 275
-769 302 -130 11 -717 14 -718 3z"/>
</g>
</svg>
