<?xml version="1.0" standalone="no"?>
<!DOCTYPE svg PUBLIC "-//W3C//DTD SVG 20010904//EN"
 "http://www.w3.org/TR/2001/REC-SVG-20010904/DTD/svg10.dtd">
<svg version="1.0" xmlns="http://www.w3.org/2000/svg"
 width="1307.000000pt" height="763.000000pt" viewBox="0 0 1307.000000 763.000000"
 preserveAspectRatio="xMidYMid meet">
<metadata>
Created by potrace 1.16, written by Peter Selinger 2001-2019
</metadata>
<g transform="translate(0.000000,763.000000) scale(0.100000,-0.100000)"
fill="#000000" stroke="none">
<path d="M3735 7304 c-266 -62 -545 -84 -1102 -84 l-373 0 0 -90 0 -90 38 0
c176 0 319 -75 382 -199 72 -144 80 -251 80 -1074 l0 -627 -69 57 c-38 32 -94
73 -125 92 -72 43 -211 98 -296 118 -88 20 -374 28 -497 14 -573 -68 -992
-364 -1239 -876 -79 -162 -116 -276 -159 -480 -101 -477 -97 -1016 9 -1466
127 -534 393 -901 804 -1108 182 -91 350 -130 602 -138 154 -4 188 -2 279 17
58 11 139 34 180 50 185 72 354 228 477 440 l49 84 6 -119 c4 -66 7 -191 8
-277 0 -86 5 -159 10 -162 4 -3 42 1 84 9 41 8 158 24 258 37 168 20 227 22
677 22 l493 1 -3 85 -3 84 -80 13 c-168 28 -273 111 -319 253 -14 41 -31 100
-37 130 -10 43 -13 647 -16 2683 -2 1445 -7 2626 -11 2626 -4 -1 -52 -12 -107
-25z m-1331 -2149 c84 -22 138 -49 203 -102 71 -58 70 -57 116 -117 l37 -49 0
-1271 0 -1272 -26 -89 c-64 -221 -173 -382 -319 -470 -85 -51 -150 -67 -265
-67 -185 2 -302 64 -420 222 -155 209 -245 553 -281 1078 -16 223 -6 794 15
972 56 451 172 781 350 988 62 72 187 147 296 176 72 19 221 20 294 1z M12125
7289 c-242 -49 -421 -61 -930 -66 l-460 -4 -3 -89 -3 -90 35 0 c58 0 185 -28
232 -52 92 -45 167 -159 200 -304 14 -59 17 -175 21 -801 3 -403 2 -733 -1
-733 -3 0 -45 31 -94 69 -195 154 -380 211 -677 211 -451 -1 -811 -137 -1121
-423 -251 -233 -444 -638 -518 -1087 -39 -239 -51 -635 -27 -890 78 -826 401
-1352 971 -1584 156 -64 342 -96 553 -96 315 0 519 80 713 281 80 84 134 156
190 256 16 29 32 53 35 53 3 0 9 -124 12 -276 4 -152 8 -279 10 -281 2 -2 26
1 53 7 101 21 370 50 562 61 169 10 825 8 872 -3 12 -2 15 13 15 86 l0 90 -74
12 c-150 25 -266 112 -311 232 -58 152 -54 -38 -57 2825 l-3 2627 -28 -1 c-15
-1 -90 -14 -167 -30z m-1205 -2149 c113 -45 221 -133 283 -232 16 -25 17 -118
17 -1292 0 -1105 -2 -1273 -15 -1331 -63 -268 -223 -476 -424 -547 -93 -33
-266 -24 -381 20 -50 19 -146 101 -192 164 -171 234 -266 592 -299 1123 -13
216 -7 694 11 870 23 225 72 473 120 610 12 33 25 74 30 90 18 56 98 204 155
285 98 139 214 222 355 255 94 21 267 13 340 -15z M5758 6498 c-4 -11 -3 -150
1 -180 1 -5 49 -8 108 -8 215 0 304 -37 369 -155 56 -100 64 -160 64 -458 l0
-265 -22 -6 c-13 -3 -51 -6 -85 -6 -212 0 -529 -87 -751 -205 -517 -275 -795
-741 -883 -1480 -16 -131 -16 -549 0 -695 48 -453 176 -816 378 -1067 199
-249 452 -421 775 -527 109 -36 338 -86 394 -86 11 0 14 27 14 132 l0 132 -43
40 c-102 95 -194 258 -244 431 -61 211 -84 322 -112 545 -31 237 -41 425 -41
766 0 547 40 889 147 1244 90 300 264 521 446 565 l27 7 0 -2198 c0 -2187 0
-2198 -21 -2274 -13 -50 -33 -93 -57 -125 -77 -102 -163 -135 -348 -135 -102
0 -113 -2 -119 -19 -8 -25 -4 -146 5 -161 5 -9 61 -11 206 -8 228 5 291 19
383 89 l51 39 45 -34 c96 -74 209 -98 435 -94 l165 3 3 70 c5 119 9 115 -113
115 -216 0 -312 46 -381 181 -48 95 -54 144 -54 420 l0 256 113 7 c141 8 226
21 349 52 257 64 476 169 653 313 355 289 554 703 627 1301 16 137 16 592 0
735 -36 306 -108 567 -218 788 -194 390 -532 671 -964 801 -113 33 -230 56
-310 59 l-65 2 -3 -125 -3 -125 52 -55 c158 -170 254 -408 323 -800 41 -241
57 -433 63 -790 8 -449 -13 -785 -68 -1090 -64 -356 -183 -631 -331 -765 -50
-45 -149 -100 -193 -107 -20 -3 -20 3 -23 2197 -2 2397 -5 2280 53 2395 63
125 160 169 372 170 l111 0 6 28 c3 15 4 54 1 87 -2 33 -4 66 -5 73 0 18 -284
16 -373 -3 -84 -17 -161 -52 -222 -99 l-46 -35 -47 36 c-60 46 -139 81 -222
99 -86 18 -366 19 -372 2z"/>
</g>
</svg>
